<svg id="svg" version="1.1" xmlns="http://www.w3.org/2000/svg" xmlns:xlink="http://www.w3.org/1999/xlink" width="400" height="400" viewBox="0, 0, 400,400">
  <g id="svgg">
    <path id="path0" d="M199.914 59.741 C 199.720 59.861,199.465 59.899,199.348 59.827 C 199.039 59.636,197.104 60.354,196.615 60.841 C 196.387 61.069,196.086 61.185,195.947 61.100 C 195.650 60.916,193.479 63.002,192.835 64.090 C 192.360 64.893,191.850 65.900,191.252 67.216 C 190.730 68.366,191.010 72.932,191.668 73.984 C 191.802 74.199,191.828 74.375,191.726 74.375 C 191.624 74.375,191.716 74.691,191.930 75.078 C 192.145 75.465,192.297 75.867,192.269 75.971 C 192.136 76.462,195.647 79.672,197.190 80.470 C 201.479 82.688,205.876 81.324,209.796 76.561 C 211.527 74.458,212.162 69.156,211.000 66.513 C 210.647 65.712,210.425 64.992,210.505 64.912 C 210.727 64.689,208.010 61.875,207.572 61.875 C 207.361 61.875,207.188 61.756,207.188 61.610 C 207.188 61.393,204.978 60.225,204.385 60.129 C 204.294 60.114,204.008 60.017,203.750 59.913 C 203.022 59.620,200.307 59.498,199.914 59.741 M204.063 64.433 C 208.550 66.904,208.346 74.609,203.732 76.846 C 201.115 78.115,197.101 76.689,196.189 74.167 C 195.981 73.594,195.708 73.125,195.582 73.125 C 195.455 73.125,195.352 72.879,195.352 72.578 C 195.353 72.277,195.288 71.398,195.208 70.625 C 195.128 69.852,195.199 68.964,195.366 68.652 C 195.532 68.340,195.728 67.778,195.800 67.403 C 195.872 67.028,196.073 66.673,196.247 66.616 C 196.420 66.558,196.563 66.344,196.563 66.141 C 196.563 65.939,197.125 65.425,197.813 65.000 C 198.500 64.575,199.063 64.112,199.063 63.970 C 199.063 63.829,199.180 63.786,199.324 63.875 C 199.467 63.963,199.995 63.917,200.496 63.771 C 201.604 63.449,202.618 63.637,204.063 64.433 M166.780 63.949 C 166.736 63.993,166.228 64.113,165.651 64.214 C 165.074 64.316,164.337 64.541,164.013 64.714 C 163.689 64.887,163.297 64.950,163.140 64.853 C 162.984 64.756,162.766 64.823,162.656 65.000 C 162.547 65.177,162.332 65.246,162.180 65.151 C 161.246 64.575,160.522 67.389,161.314 68.516 C 161.939 69.405,161.690 70.107,160.167 71.755 C 159.137 72.869,158.438 73.789,158.438 74.031 C 158.438 74.184,158.227 74.389,157.969 74.488 C 157.526 74.658,157.375 74.306,157.416 73.203 C 157.424 72.988,157.291 72.813,157.119 72.813 C 156.948 72.813,156.889 72.602,156.988 72.344 C 157.087 72.086,157.032 71.875,156.865 71.875 C 156.099 71.875,156.671 70.963,157.560 70.768 C 160.543 70.113,160.400 66.346,157.411 66.842 C 157.276 66.864,156.925 66.920,156.630 66.966 C 156.335 67.012,155.918 67.159,155.703 67.293 C 155.488 67.427,155.313 67.441,155.313 67.324 C 155.313 67.207,155.137 67.250,154.922 67.420 C 154.707 67.591,153.758 67.970,152.813 68.264 C 151.867 68.558,150.883 68.880,150.625 68.980 C 150.367 69.080,150.049 69.139,149.918 69.111 C 149.484 69.018,148.506 70.975,148.671 71.607 C 148.931 72.602,150.043 73.144,151.428 72.952 C 152.716 72.772,152.888 72.986,153.579 75.625 C 153.647 75.883,153.731 76.129,153.765 76.172 C 153.800 76.215,153.857 76.355,153.893 76.484 C 153.929 76.613,154.123 77.115,154.323 77.598 C 154.524 78.082,154.688 78.553,154.688 78.645 C 154.688 78.737,154.896 79.255,155.150 79.797 C 156.631 82.946,157.017 85.000,156.128 85.000 C 155.547 85.000,154.957 86.284,155.123 87.188 C 155.202 87.617,155.277 88.063,155.289 88.178 C 155.387 89.062,160.362 88.243,161.797 87.108 C 162.012 86.938,162.188 86.914,162.188 87.055 C 162.188 87.197,162.356 87.144,162.563 86.937 C 162.769 86.731,163.130 86.563,163.366 86.563 C 164.650 86.563,165.182 84.585,164.235 83.336 C 163.678 82.601,162.897 82.497,161.698 82.997 L 160.740 83.398 160.086 81.387 C 159.726 80.280,159.568 79.375,159.734 79.375 C 159.901 79.375,159.950 79.234,159.844 79.063 C 159.738 78.891,159.783 78.750,159.945 78.750 C 160.107 78.750,160.315 78.463,160.406 78.113 C 160.814 76.553,167.500 80.682,167.500 82.493 C 167.500 82.669,167.676 82.813,167.891 82.813 C 168.105 82.814,168.563 83.235,168.906 83.749 C 169.516 84.661,171.250 85.036,171.250 84.256 C 171.250 84.092,171.327 84.035,171.421 84.129 C 171.515 84.223,172.180 84.127,172.899 83.914 C 175.490 83.149,174.822 79.782,172.140 80.092 C 171.025 80.220,170.844 80.128,169.923 78.965 C 168.267 76.875,166.623 75.447,164.986 74.681 C 163.190 73.840,163.194 73.850,164.219 72.745 C 164.648 72.281,165.000 71.827,165.000 71.736 C 165.000 71.551,165.801 70.528,166.641 69.641 C 166.941 69.323,167.188 68.982,167.188 68.884 C 167.188 68.567,167.975 67.906,168.962 67.396 C 170.971 66.357,170.386 63.803,168.149 63.845 C 167.440 63.858,166.824 63.905,166.780 63.949 M236.816 66.950 C 232.573 68.613,230.164 72.470,230.227 77.500 C 230.251 79.461,230.548 81.009,230.946 81.255 C 231.131 81.370,231.245 81.591,231.198 81.747 C 231.073 82.170,233.843 85.901,234.297 85.921 C 234.512 85.930,234.688 86.061,234.688 86.212 C 234.688 86.443,236.378 87.318,236.875 87.345 C 236.961 87.350,237.215 87.470,237.439 87.612 C 238.574 88.332,244.688 87.426,244.688 86.537 C 244.688 86.379,244.942 86.250,245.252 86.250 C 245.563 86.250,246.496 85.617,247.327 84.844 C 248.157 84.070,248.730 83.438,248.600 83.438 C 248.470 83.438,248.732 82.955,249.182 82.365 C 249.632 81.775,250.000 81.221,250.000 81.135 C 250.000 81.049,250.162 80.582,250.360 80.098 C 251.082 78.337,251.222 75.797,250.693 74.063 C 250.457 73.289,250.235 72.504,250.199 72.318 C 250.121 71.908,248.244 69.462,247.341 68.594 C 244.836 66.184,240.498 65.507,236.816 66.950 M242.891 70.641 C 243.535 70.820,244.063 71.101,244.063 71.265 C 244.063 71.428,244.257 71.563,244.495 71.563 C 244.931 71.563,246.081 73.012,246.108 73.594 C 246.116 73.766,246.270 74.188,246.451 74.531 C 247.163 75.887,246.454 79.748,245.301 80.792 C 244.963 81.097,244.683 81.501,244.678 81.689 C 244.638 83.076,240.159 84.209,237.869 83.410 C 235.801 82.690,233.510 77.882,234.419 76.172 C 234.579 75.871,234.632 75.625,234.538 75.625 C 234.038 75.625,235.520 73.124,236.639 72.081 C 238.575 70.275,240.214 69.898,242.891 70.641 M125.907 81.335 C 125.322 81.726,124.705 82.360,124.535 82.742 C 124.328 83.208,123.954 83.438,123.399 83.438 C 121.966 83.438,118.165 85.610,118.137 86.446 C 118.130 86.640,117.891 86.991,117.605 87.227 C 116.318 88.290,115.375 92.740,116.314 93.321 C 116.456 93.409,116.506 93.589,116.424 93.722 C 116.155 94.157,118.691 96.495,119.847 96.876 C 120.994 97.255,123.988 97.048,124.609 96.547 C 124.652 96.513,124.793 96.455,124.922 96.419 C 125.051 96.383,125.578 96.176,126.094 95.958 C 126.609 95.741,127.172 95.538,127.344 95.507 C 127.516 95.476,127.797 95.368,127.969 95.267 C 129.164 94.561,131.840 94.012,132.443 94.349 C 133.356 94.861,133.038 97.227,132.003 97.624 C 131.761 97.717,131.563 97.951,131.563 98.143 C 131.563 98.622,130.270 99.664,129.661 99.677 C 129.389 99.683,129.069 99.785,128.949 99.905 C 128.830 100.024,128.560 100.158,128.350 100.201 C 128.140 100.244,127.591 100.358,127.130 100.455 C 126.571 100.571,125.806 100.371,124.834 99.855 C 123.189 98.980,122.130 99.334,121.725 100.893 C 121.500 101.759,124.062 105.808,125.148 106.303 C 125.865 106.630,127.472 106.180,127.539 105.633 C 127.561 105.457,127.613 105.172,127.656 105.000 C 127.699 104.828,127.752 104.581,127.773 104.450 C 127.795 104.319,128.214 104.196,128.706 104.176 C 129.197 104.156,130.005 103.921,130.503 103.654 C 131.000 103.387,131.828 102.966,132.344 102.719 C 133.881 101.983,136.199 99.495,136.432 98.330 C 136.904 95.980,136.902 94.709,136.428 93.791 C 136.151 93.257,135.963 92.761,136.009 92.690 C 136.159 92.462,134.125 90.666,133.934 90.857 C 133.833 90.959,133.750 90.878,133.750 90.677 C 133.750 90.477,133.645 90.335,133.516 90.362 C 133.387 90.389,133.028 90.301,132.719 90.167 C 132.411 90.032,131.567 90.021,130.844 90.141 C 130.122 90.262,129.285 90.380,128.984 90.404 C 128.684 90.427,128.438 90.572,128.438 90.725 C 128.438 90.879,128.227 90.923,127.969 90.824 C 127.711 90.726,127.500 90.766,127.500 90.913 C 127.500 91.177,126.288 91.597,125.892 91.471 C 125.781 91.435,125.430 91.642,125.111 91.931 C 124.792 92.219,124.391 92.482,124.219 92.515 C 124.047 92.548,123.565 92.704,123.149 92.863 C 121.063 93.656,119.484 92.026,120.504 90.132 C 121.114 88.999,122.841 87.519,123.759 87.342 C 124.099 87.277,124.494 87.151,124.637 87.063 C 124.958 86.864,127.500 88.093,127.500 88.447 C 127.500 88.930,129.744 88.495,130.294 87.905 C 131.113 87.025,131.211 86.498,130.730 85.547 C 130.492 85.074,130.397 84.688,130.519 84.688 C 130.642 84.688,130.378 84.301,129.933 83.828 C 129.487 83.355,129.074 82.716,129.015 82.407 C 128.955 82.098,128.471 81.571,127.938 81.235 L 126.970 80.624 125.907 81.335 M273.534 82.342 C 272.340 83.179,272.536 84.687,273.983 85.786 C 274.382 86.090,273.787 87.932,273.126 88.438 C 273.014 88.523,272.656 89.051,272.331 89.609 C 272.006 90.168,271.622 90.625,271.477 90.625 C 271.332 90.625,271.300 90.766,271.406 90.938 C 271.512 91.109,271.450 91.250,271.268 91.250 C 271.086 91.250,270.938 91.461,270.938 91.719 C 270.938 91.977,270.832 92.190,270.703 92.194 C 270.574 92.197,270.053 92.900,269.545 93.756 C 269.037 94.612,268.509 95.313,268.373 95.313 C 268.237 95.313,268.147 95.418,268.175 95.547 C 268.277 96.032,267.729 96.875,267.310 96.875 C 267.071 96.875,266.875 96.765,266.875 96.631 C 266.875 95.617,263.948 96.708,263.655 97.831 C 263.483 98.486,265.485 100.938,266.190 100.938 C 266.395 100.938,266.563 101.046,266.563 101.179 C 266.563 101.312,267.055 101.685,267.656 102.009 C 268.258 102.333,268.750 102.717,268.750 102.862 C 268.750 103.007,268.926 103.125,269.141 103.125 C 269.355 103.126,269.944 103.481,270.449 103.915 C 271.827 105.100,274.925 105.205,274.206 104.042 C 274.125 103.911,274.228 103.747,274.435 103.678 C 275.006 103.488,274.224 101.829,273.210 101.082 C 272.753 100.745,272.170 100.230,271.915 99.938 C 271.660 99.646,271.335 99.478,271.194 99.566 C 271.053 99.653,270.938 99.505,270.938 99.237 C 270.938 98.969,271.086 98.750,271.268 98.750 C 271.450 98.750,271.526 98.631,271.435 98.485 C 271.345 98.339,271.560 97.910,271.913 97.531 C 272.576 96.820,272.655 96.837,273.948 97.969 C 275.352 99.198,276.604 100.021,277.344 100.203 C 280.700 101.027,283.849 100.883,284.873 99.859 C 285.139 99.593,285.482 99.375,285.634 99.375 C 287.214 99.375,288.290 93.032,286.950 91.615 C 286.734 91.387,286.627 91.086,286.713 90.947 C 286.896 90.651,284.523 88.125,284.063 88.125 C 283.891 88.125,283.750 87.984,283.750 87.813 C 283.750 87.641,283.599 87.500,283.415 87.500 C 283.231 87.500,282.895 87.324,282.669 87.109 C 281.730 86.219,280.912 85.625,280.621 85.625 C 280.452 85.625,280.313 85.516,280.313 85.384 C 280.313 85.251,279.847 84.891,279.278 84.585 C 278.709 84.279,277.843 83.684,277.354 83.264 C 276.865 82.844,276.276 82.500,276.045 82.500 C 275.814 82.500,275.625 82.390,275.625 82.256 C 275.625 81.820,274.196 81.879,273.534 82.342 M187.293 89.218 C 136.469 94.989,96.775 133.886,89.458 185.091 C 88.671 190.597,88.671 209.403,89.458 214.909 C 96.665 265.344,134.656 303.335,185.091 310.542 C 190.597 311.329,209.403 311.329,214.909 310.542 C 265.344 303.335,303.335 265.344,310.542 214.909 C 311.329 209.403,311.329 190.597,310.542 185.091 C 303.355 134.797,265.401 96.731,215.236 89.502 C 210.341 88.797,192.592 88.616,187.293 89.218 M280.354 90.255 C 282.782 92.298,283.154 92.748,283.334 93.857 C 283.833 96.933,279.166 97.540,276.304 94.772 C 276.076 94.551,275.616 94.225,275.283 94.047 C 274.703 93.736,274.722 93.659,275.698 92.296 C 276.259 91.512,276.865 90.619,277.043 90.312 C 278.063 88.560,278.334 88.555,280.354 90.255 M209.404 94.783 C 216.420 95.254,230.351 98.377,234.150 100.330 C 234.800 100.664,235.569 100.938,235.859 100.938 C 236.645 100.938,239.114 101.912,239.964 102.558 C 240.374 102.870,241.007 103.126,241.370 103.126 C 241.734 103.127,243.763 103.968,245.880 104.996 C 267.245 115.362,284.638 132.755,295.004 154.120 C 296.032 156.237,296.873 158.266,296.874 158.630 C 296.874 158.993,297.130 159.626,297.442 160.036 C 298.088 160.886,299.063 163.355,299.063 164.141 C 299.062 164.431,299.336 165.200,299.670 165.850 C 301.618 169.639,304.731 183.510,305.222 190.596 C 305.435 193.665,305.435 206.335,305.222 209.404 C 304.731 216.490,301.618 230.361,299.670 234.150 C 299.336 234.800,299.063 235.569,299.063 235.859 C 299.062 236.645,298.088 239.114,297.442 239.964 C 297.130 240.374,296.874 241.007,296.874 241.370 C 296.873 241.734,296.032 243.763,295.004 245.880 C 284.638 267.245,267.245 284.638,245.880 295.004 C 243.763 296.032,241.734 296.873,241.370 296.874 C 241.007 296.874,240.374 297.130,239.964 297.442 C 239.114 298.088,236.645 299.062,235.859 299.063 C 235.569 299.063,234.800 299.336,234.150 299.670 C 230.361 301.618,216.490 304.731,209.404 305.222 C 206.335 305.435,193.665 305.435,190.596 305.222 C 183.510 304.731,169.639 301.618,165.850 299.670 C 165.200 299.336,164.431 299.063,164.141 299.063 C 163.355 299.063,160.886 298.088,160.036 297.442 C 159.626 297.130,158.993 296.874,158.630 296.874 C 158.266 296.873,156.237 296.032,154.120 295.004 C 132.755 284.638,115.362 267.245,104.996 245.880 C 103.968 243.763,103.127 241.734,103.126 241.370 C 103.126 241.007,102.870 240.374,102.558 239.964 C 101.912 239.114,100.938 236.645,100.938 235.859 C 100.937 235.569,100.664 234.800,100.330 234.150 C 98.382 230.361,95.269 216.490,94.778 209.404 C 94.565 206.335,94.565 193.665,94.778 190.596 C 95.269 183.510,98.382 169.639,100.330 165.850 C 100.664 165.200,100.938 164.431,100.938 164.141 C 100.938 163.355,101.912 160.886,102.558 160.036 C 102.870 159.626,103.126 158.993,103.126 158.630 C 103.127 158.266,103.968 156.237,104.996 154.120 C 115.362 132.755,132.755 115.362,154.120 104.996 C 156.237 103.968,158.266 103.127,158.630 103.126 C 158.993 103.126,159.626 102.870,160.036 102.558 C 160.886 101.912,163.355 100.938,164.141 100.938 C 164.431 100.938,165.200 100.664,165.850 100.330 C 169.974 98.209,188.309 94.294,191.300 94.895 C 191.758 94.987,192.390 94.909,192.707 94.722 C 193.275 94.385,204.064 94.425,209.404 94.783 M203.340 174.857 C 202.493 175.339,201.365 175.593,199.434 175.735 C 197.941 175.845,195.867 176.023,194.826 176.130 C 193.273 176.291,192.836 176.229,192.393 175.786 C 191.754 175.147,191.485 175.231,186.846 177.532 C 166.726 187.511,170.953 219.652,193.125 225.273 L 195.469 225.868 196.943 225.121 C 197.802 224.686,198.975 224.372,199.755 224.369 C 200.491 224.365,202.008 224.224,203.125 224.054 C 204.242 223.885,205.728 223.661,206.427 223.557 C 207.385 223.415,207.828 223.497,208.223 223.893 C 209.210 224.880,214.155 222.378,218.641 218.622 C 227.245 211.420,228.465 194.527,221.124 184.246 C 216.771 178.149,206.803 172.887,203.340 174.857 M206.287 180.214 C 223.036 186.017,225.857 207.749,211.160 217.763 C 198.183 226.605,179.231 216.062,179.231 200.000 C 179.231 193.049,181.725 188.408,188.611 182.544 C 192.535 179.203,200.382 178.168,206.287 180.214 " stroke="none" fill="000000" fill-rule="evenodd"></path>
    <path id="path1" d="M250.619 141.501 C 188.495 175.154,191.441 173.454,192.024 175.289 C 192.317 176.211,193.400 176.377,196.524 175.976 C 198.029 175.783,199.862 175.625,200.596 175.625 C 201.697 175.625,237.684 156.612,250.763 149.120 C 250.925 149.028,250.765 149.434,250.408 150.023 C 248.661 152.906,229.960 184.796,229.543 185.603 C 228.083 188.426,229.238 190.938,231.997 190.938 C 234.398 190.938,233.582 192.138,248.673 166.406 C 264.841 138.839,263.125 141.972,263.125 140.021 C 263.125 135.671,260.894 135.935,250.619 141.501 " stroke="none" fill="000000" fill-rule="evenodd">
    </path>
    <path id="path2" d="M166.630 209.609 C 166.143 210.035,139.071 255.099,137.544 258.026 C 135.579 261.794,138.960 264.460,143.057 262.375 C 150.600 258.537,208.339 226.431,208.554 225.956 C 209.384 224.123,207.976 223.150,205.319 223.719 C 204.444 223.907,202.503 224.151,201.005 224.262 C 197.688 224.507,200.567 223.069,172.686 238.410 C 160.156 245.304,149.859 250.901,149.806 250.847 C 149.752 250.794,151.056 248.507,152.704 245.765 C 173.372 211.383,173.227 211.665,171.250 209.688 C 170.417 208.855,167.550 208.806,166.630 209.609 " stroke="none" fill="000000" fill-rule="evenodd">
    </path>
    <path id="path3" d="" stroke="none" fill="000000" fill-rule="evenodd"></path>
    <path id="path4" d="" stroke="none" fill="000000" fill-rule="evenodd"></path>
  </g>
</svg>
